name C:\Users\r0593348\3dpredictsim\Results\MidTarsalJoint\Fal_s1_bCst_PF_Natali2010_ls150_MT_k150_d010_MTP_T5_ig24.mot
datacolumns 128
datarows 4
range 1.15703459 1.19174563
endheader
time	pelvis_tilt	pelvis_list	pelvis_rotation	pelvis_tx	pelvis_ty	pelvis_tz	hip_flexion_l	hip_adduction_l	hip_rotation_l	hip_flexion_r	hip_adduction_r	hip_rotation_r	knee_angle_l	knee_angle_r	ankle_angle_l	ankle_angle_r	subtalar_angle_l	subtalar_angle_r	mtj_angle_l	mtj_angle_r	mtp_angle_l	mtp_angle_r	lumbar_extension	lumbar_bending	lumbar_rotation	arm_flex_l	arm_add_l	arm_rot_l	arm_flex_r	arm_add_r	arm_rot_r	elbow_flex_l	elbow_flex_r	pro_sup_l	pro_sup_r	glut_med1_l/activation	glut_med2_l/activation	glut_med3_l/activation	glut_min1_l/activation	glut_min2_l/activation	glut_min3_l/activation	semimem_l/activation	semiten_l/activation	bifemlh_l/activation	bifemsh_l/activation	sar_l/activation	add_long_l/activation	add_brev_l/activation	add_mag1_l/activation	add_mag2_l/activation	add_mag3_l/activation	tfl_l/activation	pect_l/activation	grac_l/activation	glut_max1_l/activation	glut_max2_l/activation	glut_max3_l/activation	iliacus_l/activation	psoas_l/activation	quad_fem_l/activation	gem_l/activation	peri_l/activation	rect_fem_l/activation	vas_med_l/activation	vas_int_l/activation	vas_lat_l/activation	med_gas_l/activation	lat_gas_l/activation	soleus_l/activation	tib_post_l/activation	flex_dig_l/activation	flex_hal_l/activation	tib_ant_l/activation	per_brev_l/activation	per_long_l/activation	per_tert_l/activation	ext_dig_l/activation	ext_hal_l/activation	ercspn_l/activation	intobl_l/activation	extobl_l/activation	glut_med1_r/activation	glut_med2_r/activation	glut_med3_r/activation	glut_min1_r/activation	glut_min2_r/activation	glut_min3_r/activation	semimem_r/activation	semiten_r/activation	bifemlh_r/activation	bifemsh_r/activation	sar_r/activation	add_long_r/activation	add_brev_r/activation	add_mag1_r/activation	add_mag2_r/activation	add_mag3_r/activation	tfl_r/activation	pect_r/activation	grac_r/activation	glut_max1_r/activation	glut_max2_r/activation	glut_max3_r/activation	iliacus_r/activation	psoas_r/activation	quad_fem_r/activation	gem_r/activation	peri_r/activation	rect_fem_r/activation	vas_med_r/activation	vas_int_r/activation	vas_lat_r/activation	med_gas_r/activation	lat_gas_r/activation	soleus_r/activation	tib_post_r/activation	flex_dig_r/activation	flex_hal_r/activation	tib_ant_r/activation	per_brev_r/activation	per_long_r/activation	per_tert_r/activation	ext_dig_r/activation	ext_hal_r/activation	ercspn_r/activation	intobl_r/activation	extobl_r/activation	
          1.15703459	         -2.92993269	         -2.36463831	          5.86012485	          1.44629324	          0.91853994	         -0.00142383	        -16.30499016	         -1.58579050	          6.85366480	         29.27624796	          3.53828457	         -2.14264363	         -9.82180253	        -10.63770492	         -4.08474723	          4.94983519	         10.52564636	         -4.63022005	          8.14090817	         -0.05655524	          5.39999527	         -0.82689697	         -1.88778213	          0.44986157	         -2.24081463	          5.16485811	        -13.45603893	         17.20538398	         -5.12999356	        -13.45458069	          7.18649180	         35.27306020	         15.81496688	         86.51662706	         86.51662706	          0.24438835	          0.10122795	          0.07736091	          0.27402892	          0.19875330	          0.10982253	          0.05000088	          0.05000018	          0.05000012	          0.05168395	          0.11096725	          0.06358243	          0.06058722	          0.05000093	          0.05000153	          0.05000054	          0.30209585	          0.07113400	          0.05000131	          0.05000157	          0.05000110	          0.05000088	          0.41845417	          0.61200485	          0.05000018	          0.05000039	          0.05000036	          0.27055386	          0.05000122	          0.05000120	          0.05000097	          0.28174417	          0.38492012	          0.35981629	          0.25809814	          0.22714930	          0.30640522	          0.05000002	          0.05964197	          0.14684037	          0.05000019	          0.05000004	          0.05000016	          0.05000000	          0.05000020	          0.05250240	          0.05964192	          0.05964193	          0.05000012	          0.05964196	          0.05964195	          0.05477779	          0.14211762	          0.06980167	          0.20788054	          0.05128652	          0.05000017	          0.14403150	          0.28195667	          0.13763611	          0.18179535	          0.10605412	          0.05000007	          0.05145996	          0.13325144	          0.05000058	          0.05343504	          0.15509640	          0.05000045	          0.05000010	          0.19629534	          0.28615930	          0.13923041	          0.05000014	          0.11694542	          0.11553521	          0.10348021	          0.06226492	          0.06418218	          0.05841504	          0.05000002	          0.05000059	          0.05000021	          0.49465211	          0.24850451	          0.16348627	          0.20276251	          0.45233034	          0.21181964	          0.05413354	          0.11922271	          0.10122785	
          1.16860494	         -2.92934224	         -2.44266830	          6.14001574	          1.46384251	          0.91753251	         -0.00123277	        -16.24908330	         -1.89442467	          6.66877824	         28.59957728	          3.90448741	         -1.89922660	        -11.60380088	        -10.89088069	         -4.59946351	          4.24982870	         11.50909576	         -4.99576435	          6.94217642	         -0.04642211	          7.27630410	         -0.83540513	         -1.68129208	          0.63903281	         -2.31390623	          4.85024774	        -13.46810922	         17.49726557	         -6.06171142	        -13.44998498	          6.96575704	         36.48761490	         15.44350572	         86.51662706	         86.51662706	          0.20487959	          0.08486306	          0.06485458	          0.22972840	          0.16662209	          0.09206822	          0.05000109	          0.05000023	          0.05000027	          0.05000008	          0.09302803	          0.14254673	          0.05963707	          0.05964215	          0.05964164	          0.05964193	          0.25325793	          0.05964312	          0.05000510	          0.05000238	          0.05000184	          0.05000536	          0.35080559	          0.58132682	          0.05964223	          0.05964512	          0.05964441	          0.22681509	          0.11640533	          0.10971417	          0.15422728	          0.23619630	          0.32269244	          0.30950241	          0.21637319	          0.19042767	          0.25687078	          0.05000000	          0.05000009	          0.15689443	          0.05000004	          0.05000000	          0.05000006	          0.05715706	          0.06621141	          0.06228823	          0.05000000	          0.05000002	          0.10271397	          0.05000002	          0.05000002	          0.05000003	          0.11914236	          0.05851729	          0.17427376	          0.05000005	          0.05000258	          0.12074695	          0.28313742	          0.31230661	          0.20436556	          0.10945128	          0.05000021	          0.07114461	          0.13515739	          0.05000526	          0.09078250	          0.13002308	          0.05000005	          0.05964224	          0.48029535	          0.23989768	          0.11672190	          0.05964262	          0.14075008	          0.14095146	          0.12070035	          0.06207915	          0.06764950	          0.05000008	          0.05964198	          0.05000132	          0.05964188	          0.46972887	          0.28179220	          0.20508194	          0.16998322	          0.42447717	          0.17757607	          0.05000000	          0.09994870	          0.08486296	
          1.18017528	         -2.92434855	         -2.52396483	          6.38519932	          1.48171980	          0.91657101	         -0.00106759	        -16.13873700	         -2.20138085	          6.47754622	         27.79678165	          4.17334099	         -1.62851451	        -13.45795204	        -11.38236337	         -5.23307623	          3.70816637	         12.43699572	         -5.37454275	          5.50343527	         -0.31173359	          9.36753645	         -0.82602873	         -1.45195428	          0.84107616	         -2.37392173	          4.44508758	        -13.47677292	         17.69653303	         -7.02217241	        -13.45413095	          6.80686492	         37.69419201	         15.12406740	         86.51662706	         86.51662706	          0.32776726	          0.07114378	          0.05902619	          0.30577194	          0.13968541	          0.07718414	          0.05000068	          0.05000009	          0.05000007	          0.05000018	          0.08483661	          0.11950209	          0.05000014	          0.05000027	          0.05000035	          0.05000021	          0.24153335	          0.05000312	          0.05000049	          0.05000203	          0.05000090	          0.05000033	          0.29689989	          0.55489668	          0.05000039	          0.05000292	          0.05000215	          0.19014728	          0.09758685	          0.09197741	          0.12929434	          0.19801187	          0.27052471	          0.25946703	          0.18139347	          0.15964244	          0.21534409	          0.05000005	          0.09348771	          0.17928174	          0.05000015	          0.05423829	          0.05000021	          0.05000730	          0.05550741	          0.05221847	          0.24088896	          0.24340747	          0.29247828	          0.36428665	          0.23683746	          0.20775646	          0.10658716	          0.05981860	          0.14610012	          0.08486111	          0.05000147	          0.10122654	          0.23736433	          0.26181793	          0.17132709	          0.11216706	          0.05000021	          0.05964352	          0.11330752	          0.05000027	          0.10969014	          0.10900310	          0.05498360	          0.05000045	          0.40264892	          0.20111492	          0.21772517	          0.05000057	          0.11799590	          0.11816473	          0.10118748	          0.05204321	          0.05671306	          0.05000128	          0.05000008	          0.05000018	          0.05000026	          0.54607603	          0.33512428	          0.17310526	          0.33311608	          0.49734070	          0.16723258	          0.05902219	          0.12074777	          0.07114368	
          1.19174563	         -2.91743474	         -2.59768454	          6.59102833	          1.49968883	          0.91570900	         -0.00088128	        -15.92512265	         -2.49379377	          6.30118049	         26.95121028	          4.41530814	         -1.35938028	        -15.44038614	        -11.83673866	         -5.99532007	          3.17184367	         13.31575618	         -5.75657351	          3.87013241	         -0.26661999	         11.56801947	         -0.77105340	         -1.22595927	          1.04402568	         -2.42362869	          3.98943443	        -13.49078256	         17.83018480	         -7.96010920	        -13.45919599	          6.71118486	         38.87088073	         14.83365740	         86.51662706	         86.51662706	          0.27479592	          0.05964241	          0.05000006	          0.25633980	          0.11710336	          0.06470628	          0.05000101	          0.05000010	          0.05000009	          0.05000009	          0.07112174	          0.12063556	          0.05000067	          0.05000062	          0.05000087	          0.05000040	          0.20248624	          0.06452751	          0.05000056	          0.05000108	          0.05000065	          0.05000040	          0.24890191	          0.51185836	          0.05000010	          0.05000038	          0.05000009	          0.15940732	          0.11521821	          0.12074661	          0.12074706	          0.16600049	          0.22679062	          0.21752056	          0.15206870	          0.13383407	          0.18053075	          0.09290227	          0.13361773	          0.17068026	          0.05000025	          0.12677014	          0.05000030	          0.07405333	          0.05000000	          0.05000001	          0.33985523	          0.33895271	          0.36362151	          0.30539472	          0.19854981	          0.20433074	          0.09000552	          0.08213338	          0.12248107	          0.07114223	          0.05000028	          0.08486187	          0.19899110	          0.21949153	          0.14363064	          0.15522801	          0.05000014	          0.05000166	          0.09499006	          0.21059190	          0.17732943	          0.15163310	          0.05000003	          0.05000003	          0.33755513	          0.16860192	          0.18252703	          0.05000002	          0.13015475	          0.14407760	          0.10222525	          0.05000001	          0.05000002	          0.05000000	          0.05000000	          0.05000005	          0.05000005	          0.60347406	          0.29497600	          0.16035751	          0.55655878	          0.53488657	          0.27983546	          0.07799718	          0.10122721	          0.05964231	
